<svg xmlns="http://www.w3.org/2000/svg" xmlns:xlink="http://www.w3.org/1999/xlink" preserveAspectRatio="xMidYMid" width="128.813" height="60.41" viewBox="0 0 128.813 60.41">
  <defs>
    <style>
      .cls-1 {
        fill: #fff;
        stroke: #fff;
        stroke-linejoin: round;
        stroke-width: 5px;
        fill-opacity: 0;
        fill-rule: evenodd;
      }
    </style>
  </defs>
  <path d="M117.878,57.897 C112.997,57.897 109.504,54.583 109.504,49.635 C109.504,44.552 112.997,41.239 117.878,41.239 C122.826,41.149 126.319,44.463 126.319,49.545 C126.319,54.493 122.826,57.807 117.878,57.897 ZM117.901,43.791 C114.632,43.791 112.460,46.298 112.460,49.456 C112.460,52.836 114.632,55.344 117.901,55.344 C121.192,55.344 123.364,52.836 123.364,49.456 C123.364,46.298 121.192,43.791 117.901,43.791 ZM104.249,57.494 L101.427,57.494 L101.427,44.194 L96.569,44.194 L96.569,41.642 L109.107,41.642 L109.107,44.194 L104.249,44.194 L104.249,57.494 ZM89.267,55.344 C90.543,55.344 91.774,54.762 92.827,53.419 L95.155,55.076 C93.722,57.046 91.573,57.897 89.244,57.897 C84.363,57.897 80.870,54.583 80.870,49.635 C80.870,44.552 84.363,41.239 89.244,41.239 C91.394,41.239 93.230,41.932 94.797,43.746 L92.603,45.358 C91.438,44.127 90.364,43.791 89.267,43.791 C85.998,43.791 83.826,46.298 83.826,49.456 C83.826,52.836 85.998,55.344 89.267,55.344 ZM79.655,54.941 L80.588,57.494 L66.885,57.494 L66.885,41.642 L80.185,41.642 L79.252,44.194 L69.707,44.194 L69.707,48.090 L76.983,48.090 L76.983,50.642 L69.707,50.642 L69.707,54.941 L79.655,54.941 ZM53.353,2.516 L74.953,2.516 L74.953,24.116 L53.353,24.116 L53.353,2.516 ZM60.771,53.419 L60.771,41.642 L63.592,41.642 L63.592,57.494 L60.010,57.494 L52.173,45.336 L52.128,45.336 L52.128,57.494 L52.077,57.494 L49.307,57.494 L48.495,57.494 L40.659,45.336 L40.614,45.336 L40.614,57.494 L37.792,57.494 L37.792,41.642 L41.532,41.642 L49.211,53.419 L49.256,53.419 L49.256,41.642 L49.307,41.642 L52.077,41.642 L53.046,41.642 L60.726,53.419 L60.771,53.419 ZM26.443,57.897 C21.562,57.897 18.069,54.583 18.069,49.635 C18.069,44.552 21.562,41.239 26.443,41.239 C31.391,41.149 34.884,44.463 34.884,49.545 C34.884,54.493 31.391,57.807 26.443,57.897 ZM26.465,43.791 C23.196,43.791 21.024,46.298 21.024,49.456 C21.024,52.836 23.196,55.344 26.465,55.344 C29.756,55.344 31.928,52.836 31.928,49.456 C31.928,46.298 29.756,43.791 26.465,43.791 ZM10.905,55.344 C12.182,55.344 13.413,54.762 14.465,53.419 L16.794,55.076 C15.361,57.046 13.211,57.897 10.883,57.897 C6.002,57.897 2.509,54.583 2.509,49.635 C2.509,44.552 6.002,41.239 10.883,41.239 C13.032,41.239 14.868,41.932 16.436,43.746 L14.241,45.358 C13.077,44.127 12.002,43.791 10.905,43.791 C7.636,43.791 5.465,46.298 5.465,49.456 C5.465,52.836 7.636,55.344 10.905,55.344 Z" class="cls-1"/>
</svg>
